<svg xmlns="http://www.w3.org/2000/svg" viewBox="0 0 1679.42 1510.55"><defs><style>.cls-1{fill:#f3eadc}</style></defs><g id="Layer_2" data-name="Layer 2"><g id="Layer_1-2" data-name="Layer 1"><path class="cls-1" d="M1118.67 1322.59c49.6 0 118-10.29 221.52-41.44 41.84-15 70.65-37.17 81.14-62.53 7-17 6.07-35.1-2.79-53.9-12.21-26-45.77-64.12-78.24-101-15.59-17.72-30.31-34.44-41.21-48.25-47.3-62.28-67.69-124.85-80.58-180.13h-10.17c13.07 56.8 33.75 121.46 82.93 186.22 11.12 14.09 25.94 30.92 41.61 48.73 30.52 34.66 65.1 74 76.71 98.66 7.61 16.16 8.49 31.59 2.59 45.85-9.4 22.74-36.15 43-75.07 56.91-207 62.29-270.63 40-326.71 20.31-6.85-2.4-13.59-4.77-20.47-7v10.48c5.76 1.88 11.47 3.83 17.24 5.86 29.16 10.29 60.33 21.23 111.5 21.23Z"/><path class="cls-1" d="M1070.26 1043.74c-11 27.51-13.21 63.6-5.84 94.19 0 .12.06.24.1.36 8.25 25.56 31 42.43 59.29 44 1.38.08 2.75.12 4.12.12 26.33 0 51.33-14.07 61.76-35.18 10.58-21.4 6-46.45-13.1-72.46a191.84 191.84 0 0 0-50.53-47.54c-11.13-7.19-23-9.31-33.5-6-10.01 3.27-17.72 11.03-22.3 22.51Zm50.44-8.15a181.93 181.93 0 0 1 47.93 45.1c17 23.13 21.14 44 12.19 62.13-10.33 20.91-36.23 30.71-56.46 29.57-24.07-1.35-43.35-15.51-50.37-37-6.74-28.22-4.6-62.73 5.47-88 3.44-8.64 9-14.4 16.11-16.68 7.61-2.39 16.53-.71 25.13 4.88Z"/><path class="cls-1" d="M1162.25 896.07c4.09 11.94 8.3 24.25 12.76 36.9 23.28 60.83 51.77 98.67 74.66 129.08 13 17.27 26.73 34.7 35.2 54.78 9.42 22.32 12.47 47.25 1.11 69.36-9.06 17.63-28.65 30.89-46.36 38.55-48.69 21.06-93 31.41-135.25 31.67-48.4-3.59-92.61-28.16-114.48-50.22v6.9c23.54 21.77 66.95 44.77 114.32 48.27 43.13-.24 88.06-10.73 137.53-32.13 20.86-9 42.66-24.42 51.91-46 9.49-22.14 3.88-51.24-5.91-72.3-8.75-18.82-21.71-35.4-34.12-51.88-22.7-30.16-50.95-67.69-74-127.81-4.43-12.57-8.64-24.87-12.71-36.79-7.17-21-14-40.83-21-59.11h-5.29c7.25 18.66 14.25 39.13 21.63 60.73Z"/><path class="cls-1" d="m1596.44 1092.28 2.22 1.19c26 13.89 58.36 31.19 71.64 57.7 16 31.9-19.06 56.66-44.65 74.74-3.78 2.67-7.35 5.2-10.47 7.53-121.29 84.69-170.48 133.29-206.4 168.78-32.38 32-53.78 53.15-108.89 79.62-24.56 10.33-45.07 16.85-62.79 20.36-53.18 10.52-81.35-6.08-119.13-28.36l-4.11-2.41c-53.5-27.83-92.8-39.22-124-42.08v5c30.55 2.86 69.1 14.09 121.58 41.38l4 2.35c30.57 18 55 32.43 90.68 32.43 24.63 0 54.62-6.87 95.68-24.13h.13c55.91-26.84 77.55-48.23 110.31-80.6 35.78-35.36 84.8-83.8 205.82-168.29 3.15-2.36 6.68-4.86 10.42-7.5 27.06-19.12 64.11-45.3 46.22-81-14-27.92-47.11-45.63-73.73-59.86l-2.22-1.18c-137.06-73.35-211-135.46-239.18-252.55h-5.23c28.21 119.4 102.93 182.4 242.1 256.88Z"/><path class="cls-1" d="M1022.49 1362c42.4 11.13 103.75 27.24 175.73 27.24a445.2 445.2 0 0 0 116.55-15.16c79-26 158.45-82.32 207.34-147 11-14.5 21.4-30.27 23.58-47.38 3.16-24.73-16.19-43-33.41-56.18-10-7.62-20.4-14.93-30.48-22-11.66-8.16-23.7-16.61-35.06-25.55a879 879 0 0 1-75-66.89c-54-55.25-77.07-115.47-90.2-173.7H1279c13.18 58.74 36.42 119.56 91 175.45a881.16 881.16 0 0 0 75.22 67.1c11.4 9 23.48 17.44 35.16 25.63 10.07 7 20.48 14.35 30.4 21.93 16.69 12.76 35.46 30.42 32.46 53.89-2.12 16.54-12.35 32-23.1 46.19-48.6 64.32-127.59 120.32-206.08 146.14-120.75 32.58-227.29 4.61-290.94-12.1-11.35-3-21.15-5.55-29.73-7.46-1.18-.22-2.32-.36-3.5-.56v2.51c1 .18 2 .29 3 .48 8.5 1.86 18.28 4.42 29.6 7.42ZM4.61 350.69c13.86-6.44 27.81-13.25 41.3-19.85q11.46-5.61 23-11.17c24.14-11.61 47-20.28 67.8-25.77 7.43-1.95 30.06-7.9 35.83 5.75 6.57 15.53-9.12 30.08-20.58 40.7-1.42 1.32-2.78 2.57-4 3.76q-7.26 7-14.48 14c-8.31 8-16.9 16.36-25.43 24.43-19.35 18.28-35.55 33.43-53.32 48-2.3 1.88-4.67 3.76-7.06 5.65-8.72 6.89-17.72 14-24.55 22.63A174.93 174.93 0 0 0 0 496.25v7.09c5.49-13.92 13.46-28 25.23-42.87 6.62-8.37 15.51-15.39 24.09-22.18 2.41-1.9 4.8-3.78 7.11-5.68 17.83-14.61 34.08-29.79 53.46-48.11 8.55-8.08 17.14-16.41 25.45-24.45q7.23-7 14.48-14c1.22-1.18 2.56-2.42 4-3.73 12.05-11.17 28.55-26.46 21.24-43.74-6.7-15.84-31.05-9.43-39.05-7.33-21 5.53-44 14.26-68.29 26q-11.52 5.55-23 11.18C31.23 335 17.29 341.8 3.45 348.22L0 349.81v3Z"/><path class="cls-1" d="M156 602.41c.13-12.83.24-24.94-2.78-34.95-5-12.33-12.52-20.18-19.15-27.1-12.82-13.39-23-24-9.27-61.19 18.47-46.23 34.4-55.36 56.46-68 26.39-15.12 59.23-33.93 111-122.47 6.38-10.94 12.54-22.06 17.86-33.55 4.22-9.12 8-18.56 10.12-28.39a60.76 60.76 0 0 0 .83-24.28 47.52 47.52 0 0 0-3.36-10.68 35.31 35.31 0 0 0-10.5-13.93 41.11 41.11 0 0 0-15.2-7.8c-10.5-2.7-21.32-.21-31.14 3.78-9.05 3.68-17.67 8.51-26.1 13.4l-1 .57c-35.94 20.35-51.82 23.37-67.17 26.29-19.27 3.66-37.48 7.13-90.3 41.78-32.55 21.58-48.37 28.68-76.24 41v6l1-.45c28.91-12.79 44.84-19.83 78.25-42 51.9-34.05 69.58-37.41 88.3-41 15.79-3 32.12-6.11 68.85-26.9l1-.57c10.19-5.77 20.51-12 31.76-15.46 9.51-3 19.52-3.19 28.5 1.58 4.89 2.6 9.57 6.13 12.41 11a46.17 46.17 0 0 1 4.62 10.71 51.92 51.92 0 0 1 .64 23.1c-1.7 9.51-5.15 18.66-9.09 27.45a365.8 365.8 0 0 1-17.3 33.07l-1.53 2.58c-51 87.28-83.12 105.69-108.94 120.48-22.15 12.69-39.65 22.71-58.84 70.78-14.88 40.49-3.15 52.72 10.42 66.89 6.6 6.89 13.43 14 17.95 25.14 2.7 9 2.59 20.7 2.47 33.1-.36 37.42-.81 84 70.76 105 68.83 17.37 106.24 7.48 136.3-.47 29.49-7.79 52.78-13.95 94.32 6.71 6.68 3.59 10.87 6 14.57 8.06 5.69 3.22 10.18 5.76 20.64 11 24.15 11 44.52 12.62 60.52 5 14.7-7 24.93-21.51 30.41-43a2.56 2.56 0 0 0 .05-.27c1.46-9.77 2-16.41 2.38-21.26.75-9.32 1-12.53 6.16-21.57 13.13-13 26.45-10.24 52.81-4.87 5 1 10.32 2.1 16.18 3.18 6.8 1.19 13.09 2.22 18.94 3.17 57.54 9.42 69.52 11.38 86 89.72 4.5 20.62 9 37.12 13 51.67 8.71 31.68 15.18 55.3 14.22 95.83h5.47c1-41.22-5.59-65.16-14.42-97.26-4-14.5-8.5-30.92-13-51.38-17.24-82-31.3-84.27-90.46-93.95-5.82-1-12.1-2-18.85-3.17-5.8-1.06-11.13-2.15-16.06-3.15-26.65-5.43-42.74-8.7-58 6.62a2.67 2.67 0 0 0-.43.57c-5.94 10.33-6.26 14.38-7.05 24.16-.38 4.75-.9 11.24-2.31 20.76-5.08 19.8-14.31 33-27.44 39.32-14.48 6.92-33.28 5.24-55.81-5-10.24-5.09-14.67-7.61-20.29-10.79-3.72-2.11-7.94-4.5-14.75-8.16-43.47-21.62-68.85-14.9-98.24-7.13-31 8.19-66.1 17.48-133.45.48-67.47-19.92-67.07-62.36-66.7-99.8Z"/><path class="cls-1" d="M105 621.19c-5.75-21.91-13.7-28.81-22.9-36.81C75.9 579 68.85 572.85 61.22 561c-26.56-49 21-105.79 43.87-133.09 22.68-26.4 39-36.71 54.85-46.68 10.35-6.52 21-13.26 33.25-24.38 14.1-12.83 60-57.77 58.95-96.66-.19-7-2.47-12.39-6.76-16.06-9.82-8.39-28-6.1-41.3-4.43l-2.41.3c-57.52 8.85-73 17.44-103.74 34.55-4.34 2.41-9 5-14.09 7.77C56.16 298 27.42 312 0 324.58v3c27.81-12.71 57-26.95 85.17-42.84 5.1-2.78 9.75-5.36 14.09-7.77 30.49-17 45.79-25.46 102.79-34.24l2.37-.29c12.78-1.61 30.28-3.81 39.18 3.8 3.74 3.19 5.64 7.79 5.81 14.06.81 30-29.45 68.54-58.06 94.58-12 10.95-22.15 17.33-32.87 24.09C142.49 389 126 399.47 103 426.2c-18.35 21.91-52.36 62.53-52.36 103.59a67.41 67.41 0 0 0 8.22 32.63c7.89 12.23 15.09 18.49 21.45 24 9.23 8 16.52 14.35 22 35.38 13.73 66.92 21.46 90.9 80 107.33 39 9.7 134.41 17.49 148.85 17.76 16.39-.49 22.5-2.35 37.27-6.84l5.14-1.56c34.7-9.39 47.49-1.17 75.53 16.82 4.79 3.07 10.22 6.56 16.2 10.22l5.92 3.54C523.09 800 572 829.15 585.7 882.89l.64 3c.32 1.49.63 2.9.93 4.33h2.8c-.35-1.62-.7-3.22-1.06-4.91l-.65-3c-14-54.88-63.37-84.34-115.65-115.53l-5.9-3.53c-5.95-3.64-11.36-7.12-16.14-10.18-27.87-17.89-41.86-26.86-77.77-17.15l-5.17 1.57c-15 4.55-20.54 6.24-36.49 6.72-14.32-.26-109.31-8-148.14-17.66-57.19-16.08-64.28-38.1-78.1-105.36Z"/><path class="cls-1" d="M18.3 137.58a123.67 123.67 0 0 0 13.41-20.65c2.59-4.73 5.27-9.62 9.37-15.74 13-18.46 32.4-17.67 56.92-16.67 26.28 1.07 56.06 2.28 85.56-21a238.5 238.5 0 0 0 27.06-26.78c5.06-5.68 10.29-11.55 18-18.8C252-1.63 273.16 5.09 302.43 14.39c27.27 8.67 61.22 19.45 107.2 9.36 9.35-2.29 18.06-5.26 26.49-8.13 32.75-11.15 58.62-19.95 88.39 23.9C547.2 76 557 106.14 557 133.29c0 37.79-19 69.69-49 104.28-16.68 18.59-30.06 31.95-40.81 42.68-22.37 22.32-33.59 33.52-40.33 57.11a2.09 2.09 0 0 0-.08.34c-1 6.73-1.56 15.41 3.08 23 11.7 19.07 40.6 12.19 57.86 8.09l1.42-.34c20.5-4.85 41.69-9.87 61-.45 5.59 2.72 11.79 7.75 9.64 16.23-2.43 9.56-10.38 16.75-18.07 23.7l-2.71 2.38c-7.49 6.89-14.39 14.5-21 21.86l-4.9 5.4L509 442c-6.53 7-13.28 14.3-18.76 22.63-8.34 12.69-8.3 23.07.12 29.23 15 11 36.36 6.67 44.86 4.31 13.31-3.7 26.82-10.67 39.08-20.15 11.08-8.58 19.77-18.37 25.89-29.25 5.49-11.33 9-20.76 11.85-28.33C624.14 388 626 383 731 361.54c13.65-2.15 20-3 40.24-3 14.63.24 27.24.26 38.36.28h10.27v-5.45h-10.26c-11.1 0-23.69 0-38.33-.27-20.69 0-27.18.87-41.26 3.09-108.06 22.11-110.36 28.25-123.12 62.35-2.94 7.86-6.28 16.77-11.58 27.72-5.68 10.09-13.89 19.33-24.39 27.46-11.7 9.06-24.57 15.7-37.2 19.21-7.73 2.15-27.11 6.11-40.16-3.44-5.89-4.33-5.48-11.68 1.22-21.86 5.23-7.95 11.53-14.73 18.2-21.92 1.38-1.48 2.76-3 4.13-4.46q2.48-2.7 4.92-5.42c6.59-7.27 13.4-14.79 20.71-21.5l2.62-2.38c7.9-7.15 16.87-15.25 19.7-26.41 2.35-9.24-2.22-17.42-12.53-22.46-21-10.27-43.21-5-64.69.06l-1.37.33c-15.83 3.76-42.3 10.06-51.94-5.63-3.68-6-3.21-13.37-2.36-19.15 6.36-22.11 17.25-33 38.89-54.58 10.8-10.78 24.24-24.2 41.05-42.94 53.22-61.4 73.08-114.55 17-204.6-32.2-47.4-61.19-37.57-94.76-26.1-8.32 2.83-16.92 5.75-26 8-44.48 9.76-76.26-.34-104.3-9.25C275.5.11 250.81-7.74 225 13.91c-8 7.52-13.3 13.49-18.44 19.25a233.12 233.12 0 0 1-26.46 26.19c-27.84 21.93-56.55 20.76-81.88 19.73-24.1-1-46.86-1.91-61.65 19-4.26 6.37-7 11.37-9.66 16.2-3.6 6.57-6.7 12.24-12.8 19.78A94.14 94.14 0 0 1 0 147.37v6.68a95.6 95.6 0 0 0 18.3-16.47Z"/><path class="cls-1" d="M8.92 219.07c34.73-17.07 48.63-31.77 59.8-43.54 10-10.57 18-18.91 37-25.4 13.36-3.76 24.25-4.14 34.79-4.5 19.27-.66 37.46-1.29 66.5-22.66 6.81-5.3 12.67-10.06 17.84-14.26 32.31-26.25 39-31.71 97.79-24.83 61.49 8.14 70.33 22.44 94 60.66l4.08 6.59c32.28 53.71 22 71.61-18.29 113-44.43 46.29-66.29 102.49-85.58 152.07-7.27 18.7-14.14 36.36-21.88 53l-4.9 10.56c-26.07 56.07-48.59 104.49-34.26 134 6 12.35 17.93 20.51 36.6 25 13.7 2.05 19.48 1.87 33.69.09 34.9-6.29 54.16-18.29 74.55-31 23.55-14.66 47.9-29.82 99.13-38.1 55-8.57 62.87-10.5 69.86-12.21 5.09-1.24 9.49-2.32 31.79-5.81 51.92-7.16 68.29-23.52 84.13-39.35 17.56-17.56 35.73-35.72 103.25-42.43 13.11-.71 22.61-.54 31 2V469c-8.56-2.42-18.17-2.58-31.25-1.86-68.55 6.81-87.07 25.32-105 43.22-16.17 16.24-31.5 31.56-82.56 38.64-22.44 3.52-26.89 4.61-32 5.87-6.94 1.69-14.8 3.61-69.64 12.16-51.78 8.37-76.37 23.68-100.15 38.48C379 618 360 629.88 325.69 636.06c-14.06 1.76-19.4 1.94-32.76-.06-17.71-4.23-29-11.91-34.66-23.47-13.76-28.35 8.5-76.22 34.28-131.66l4.9-10.56c7.78-16.68 14.66-34.38 21.95-53.12 19.2-49.35 41-105.28 84.92-151.17 40.54-41.68 51.78-61.18 18.66-116.31l-4.09-6.6c-23.46-37.93-33.17-53.63-96-61.94-59.92-7-67.58-.78-99.84 25.43-5.16 4.19-11 8.94-17.77 14.2-28.33 20.85-46.11 21.46-64.94 22.11-10.7.37-21.77.75-35.52 4.62-19.7 6.73-27.83 15.29-38.12 26.13-11 11.61-24.72 26.06-59 43-2.7 1.27-5.23 2.53-7.7 3.75v3c2.84-1.36 5.8-2.82 8.92-4.34Z"/><path class="cls-1" d="M214.38 653.79c-22.59-27.7-15.32-53.33-8.29-78.12 3.79-13.39 7.71-27.24 6.94-41.32-1.31-9.6-2-14.42-8.29-28.8-12-30.89-5.25-39 37.35-82.53 21.15-21.62 27.37-28.38 44.09-55.15 5.73-9.38 11.65-18.89 17.37-28.09 15.93-25.58 32.39-52 46.72-79 11.59-21.84 17.46-44.88 16.51-64.88-1.13-24.12-12.16-43.62-31.94-56.43-47.89-24.3-81.25-2.31-113.51 18.95-2.36 1.55-4.71 3.1-7.06 4.63-27.76 17.09-38.84 18.84-68.45 23.52l-3.42.54c-29.21 5.52-39.05 13.3-55.35 26.19-15.44 12.21-37.18 29.38-87 54.35v1.52c50.43-25.19 72.35-42.51 87.9-54.8 16.68-13.19 25.88-20.46 54.73-25.91l3.4-.54c29-4.58 41-6.48 69-23.72 2.37-1.54 4.72-3.09 7.09-4.65 31.93-21 65-42.8 112.07-18.9C357 155.4 365.68 177 365.68 200c0 20.28-6.79 41.58-16.62 60.11-14.31 27-30.76 53.39-46.67 78.95-5.72 9.2-11.64 18.71-17.37 28.1-16.64 26.64-22.84 33.37-43.9 54.91-43.13 44.07-49.94 52.29-37.65 84 6.26 14.24 6.91 19 8.2 28.41.76 13.8-3.13 27.54-6.9 40.82-7.12 25.12-14.49 51.1 8.59 79.38 35.35 37.75 92 28.56 137.44 16.34 62.89-16.74 93.09-20 113.08-22.12 20.6-2.21 29.13-3.13 49.93-16.71 6.78-3.62 12.73-6.93 18.49-10.14 33.91-18.91 50.93-28.39 102.89-22.45 27 3.15 50.07 2.25 70.41-2.74 3.89-1 7.86-2.21 11.7-3.42 8.45-2.66 17.18-5.41 26-5.36 30.1.19 37.32 43.28 42.1 71.79.87 5.15 1.68 10 2.53 14 3.16 14.76 5.75 29.89 8.25 44.51 2.31 13.49 4.69 27.44 7.53 41.08 6.91 31.63 12.24 59.22 16.19 83.35v-8.31c-3.79-22.21-8.7-47.19-14.86-75.38-2.82-13.6-5.21-27.54-7.51-41-2.51-14.64-5.1-29.77-8.27-44.56-.84-3.92-1.65-8.77-2.51-13.89-4.85-29-12.2-72.74-43.45-72.93-9-.06-17.82 2.73-26.36 5.42-3.82 1.2-7.77 2.45-11.62 3.4-20.46 5-42.68 5.88-69.92 2.71-52.4-6-69.55 3.56-103.72 22.61-5.75 3.2-11.69 6.52-18.52 10.16-20.57 13.43-29 14.34-49.37 16.52-20 2.15-50.3 5.4-113.29 22.17-45.11 12.1-101.29 21.27-136.12-15.94Z"/></g></g></svg>