<svg id="Layer_1" data-name="Layer 1" xmlns="http://www.w3.org/2000/svg" viewBox="0 0 487.13 106.09"><title>studiothink_logo_white</title><path d="M248.78,170l-17.52-.09a42.64,42.64,0,0,1-11.32-1.44A27.13,27.13,0,0,1,210.7,164a21,21,0,0,1-6.22-7.49,23.47,23.47,0,0,1-2.24-10.6q0-7.49,2.86-12.36a25.43,25.43,0,0,1,6.79-7.76,24.17,24.17,0,0,1,8.53-4,33.06,33.06,0,0,1,7-1,27.69,27.69,0,0,1,4.44.32,28.85,28.85,0,0,1,4.21,1.21V102.24l12.62-.08Zm-12.73-36a14.55,14.55,0,0,0-4-1.34,26.68,26.68,0,0,0-4.6-.37,11.37,11.37,0,0,0-3.26.64,12,12,0,0,0-3.93,2.19,14,14,0,0,0-3.37,4.23,13.72,13.72,0,0,0-1.46,6.63,11.88,11.88,0,0,0,1.52,6.31,11.7,11.7,0,0,0,3.88,3.91,16.06,16.06,0,0,0,5.28,2,28.4,28.4,0,0,0,5.62.59H236V133.94Z" transform="translate(-63.37 -64.88)"/><path d="M86.32,139.25c-4.73-1-8.46-1.74-8.46-4,0-2.42,2.88-4.17,6.86-4.17,5.89,0,11,2.64,13.45,5.27l0.43,0.46,5.45-9.32-0.32-.26a30.35,30.35,0,0,0-19.1-6.49c-13.45,0-19.57,7.87-19.57,15.18,0,11.53,10.74,13.72,18.58,15.32,4.89,1,9.11,1.86,9.11,4.51,0,2.9-2.67,4.56-7.34,4.56a26.07,26.07,0,0,1-15.78-6.26l-0.42-.4-5.82,9.44,0.29,0.26c5,4.62,12.91,7.38,21.15,7.38,12.53,0,20.63-6.07,20.63-15.47C105.44,143.17,94.38,140.9,86.32,139.25Z" transform="translate(-63.37 -64.88)"/><path d="M140.12,158.36l-0.78.17a10.62,10.62,0,0,1-2.06.18c-3.36,0-9-1.11-9-8.57V131.78h11.07v-11H128.29V102.24H115.17l-0.29,49.43c0,17.22,14.59,19.08,20.87,19.08a21.35,21.35,0,0,0,3.85-.3l0.52-.1v-12Z" transform="translate(-63.37 -64.88)"/><rect x="195.71" y="55.82" width="13.12" height="49.19"/><path d="M305.63,120.7c-14.46,0-24.57,10.34-24.57,25.14S291.16,171,305.63,171s24.57-10.34,24.57-25.14S320.09,120.7,305.63,120.7Zm11.59,25.14c0,9-4.44,14.55-11.59,14.55S294,154.81,294,145.84s4.44-14.55,11.59-14.55S317.22,136.86,317.22,145.84Z" transform="translate(-63.37 -64.88)"/><path d="M395.72,120.05a19,19,0,0,0-9.28,2.74V102.17H373.33v67.72h13.12v-35.1a10.38,10.38,0,0,1,8.32-3.7c6.17,0,8.8,3.72,8.8,12.45v26.35h13.12V143.54C416.68,128,409.63,120.05,395.72,120.05Z" transform="translate(-63.37 -64.88)"/><path d="M472.2,119.91c-11.43,0-21.71.83-21.71,0.83v49.15h12.89V132.68a42.64,42.64,0,0,1,7.37-.68c8.9,0,9.63,3.58,9.63,7.56v30.33h12.8V140.5C493.18,127.61,485.34,119.91,472.2,119.91Z" transform="translate(-63.37 -64.88)"/><path d="M534.09,170L521.56,151.7l-5.68,6.09V170H503.45V102.17h12.43v41.47l19.3-22.77,15.31,0L530.37,144,549.65,170H534.09Z" transform="translate(-63.37 -64.88)"/><rect x="363.71" y="55.88" width="13.12" height="49.13"/><path d="M440.27,65.37a1.51,1.51,0,0,0-1.12-.49h-11a1.54,1.54,0,0,0-1.13.49,1.37,1.37,0,0,0-.34,1.15l5.56,35.27a1.5,1.5,0,0,0,2.93,0l5.47-35.26A1.39,1.39,0,0,0,440.27,65.37Z" transform="translate(-63.37 -64.88)"/><path d="M473.3,86.25l-6.91-8.61a1.54,1.54,0,0,0-1.09-.57,1.46,1.46,0,0,0-1.11.46l-24,26.42a1.47,1.47,0,0,0,0,1.88,1.51,1.51,0,0,0,1.17.57,1.43,1.43,0,0,0,.68-0.17l30.92-17.8a1.38,1.38,0,0,0,.69-1A1.51,1.51,0,0,0,473.3,86.25Z" transform="translate(-63.37 -64.88)"/><path d="M403.08,77.54a1.34,1.34,0,0,0-1.13-.47,1.53,1.53,0,0,0-1.08.57L394,86.25a1.51,1.51,0,0,0-.32,1.18,1.37,1.37,0,0,0,.69,1l30.93,17.81a1.41,1.41,0,0,0,.67.17,1.51,1.51,0,0,0,1.17-.57,1.47,1.47,0,0,0,0-1.89Z" transform="translate(-63.37 -64.88)"/><path d="M363.79,158.29l-0.78.17a10.63,10.63,0,0,1-2.06.18c-3.36,0-9-1.11-9-8.56V131.74H363v-11H352V102.24H338.85l-0.29,49.37c0,17.2,14.59,19.06,20.87,19.06a21.38,21.38,0,0,0,3.85-.3l0.52-.1v-12Z" transform="translate(-63.37 -64.88)"/><path d="M193.92,120.76H180.81l-0.05,30.7a10.64,10.64,0,0,1-.53,3.43,4.81,4.81,0,0,1-1.32,2.13,8.36,8.36,0,0,1-2.16,1.44,11.1,11.1,0,0,1-2.45.83,10.67,10.67,0,0,1-2.18.26,11.5,11.5,0,0,1-2.24-.26,10.05,10.05,0,0,1-2.44-.83,8.74,8.74,0,0,1-2.11-1.44,4.81,4.81,0,0,1-1.32-2.14,10.58,10.58,0,0,1-.53-3.42l-0.23-30.7H150.32v29.3a28.4,28.4,0,0,0,.84,7.55,21.32,21.32,0,0,0,2.52,5.62,16.26,16.26,0,0,0,7.2,5.7,32.16,32.16,0,0,0,22.48,0,16.25,16.25,0,0,0,7.2-5.7,18.44,18.44,0,0,0,2.58-5.62h0a30.4,30.4,0,0,0,.78-7.54v-29.3Z" transform="translate(-63.37 -64.88)"/></svg>