<?xml version="1.0" standalone="no"?>
<!DOCTYPE svg PUBLIC "-//W3C//DTD SVG 20010904//EN"
 "http://www.w3.org/TR/2001/REC-SVG-20010904/DTD/svg10.dtd">
<svg version="1.0" xmlns="http://www.w3.org/2000/svg"
 width="512.000000pt" height="512.000000pt" viewBox="0 0 512.000000 512.000000"
 preserveAspectRatio="xMidYMid meet">
<metadata>
Created by potrace 1.14, written by Peter Selinger 2001-2017
</metadata>
<g transform="translate(0.000000,512.000000) scale(0.100000,-0.100000)"
fill="#000000" stroke="none">
<path d="M774 4421 c-2 -3 -4 -671 -4 -1485 1 -1575 0 -1539 48 -1676 56 -159
167 -306 311 -410 94 -69 246 -130 362 -146 85 -12 959 -11 968 1 10 13 7
2947 -3 3005 -41 235 -172 436 -371 569 -126 84 -234 123 -378 137 -74 7 -926
12 -933 5z"/>
<path d="M3506 3303 c-1 -1 -24 -3 -51 -4 -28 -1 -70 -6 -95 -11 -25 -5 -53
-11 -63 -13 -112 -23 -275 -117 -375 -215 -132 -131 -224 -314 -248 -491 -4
-33 -8 -1663 -5 -1844 l1 -30 473 1 c259 1 488 4 507 8 190 37 338 114 466
241 101 99 198 266 215 370 1 6 5 19 9 31 20 53 23 187 24 1042 1 806 -1 912
-14 913 -33 2 -842 4 -844 2z"/>
</g>
</svg>
